<?xml version="1.0" encoding="utf-8"?>
<!-- Generator: Adobe Illustrator 27.4.0, SVG Export Plug-In . SVG Version: 6.00 Build 0)  -->
<svg version="1.1" id="Layer_1" xmlns="http://www.w3.org/2000/svg" xmlns:xlink="http://www.w3.org/1999/xlink" x="0px" y="0px"
	 viewBox="0 0 2253.14 2155.43" style="enable-background:new 0 0 2253.14 2155.43;" xml:space="preserve">
<style type="text/css">
	.st0{fill:#404041;}
	.st1{fill:#FFFFFF;stroke:#231F20;stroke-width:2;stroke-miterlimit:10;}
	.st2{fill:#3FA311;}
	.st3{fill:#37890B;}
	.st4{fill:#08824B;}
	.st5{fill:#066035;}
	.st6{fill:none;stroke:#6D6E70;stroke-width:8.7306;stroke-miterlimit:10;stroke-dasharray:13.0959,13.0959;}
	.st7{fill:#D0D2D3;}
	.st8{fill:#1F8ECD;}
	.st9{fill:#FFFFFF;}
	.st10{fill:#80B2FF;}
	.st11{fill:#005CEA;}
	.st12{fill:#5896FA;}
	.st13{fill:#1251B3;}
	.st14{fill:#066337;}
	.st15{fill:#FFFFFF;stroke:#408E60;stroke-width:6.3406;stroke-miterlimit:10;}
	.st16{fill:#17AA63;}
	.st17{fill:#DB2E74;}
	.st18{fill:#D1F5FF;}
	.st19{fill:#CE4E06;}
	.st20{fill:#F47423;}
	.st21{fill:#EFEFEF;}
	.st22{fill:#A6A8AB;}
	.st23{fill:#A6A8AB;stroke:#FFFFFF;stroke-width:4.2257;stroke-miterlimit:10;}
	.st24{fill:#0E0E0E;}
	.st25{fill:#B7B7B7;}
	.st26{fill:#A8004C;}
	.st27{fill:#58595B;stroke:#231F20;stroke-width:2;stroke-miterlimit:10;}
	.st28{fill:#231F20;stroke:#231F20;stroke-miterlimit:10;}
	.st29{fill:#919191;}
	.st30{fill:#F1F1F2;stroke:#231F20;stroke-width:2;stroke-miterlimit:10;}
</style>
<g id="BG">
</g>
<path id="shadow_1_" class="st0" d="M20.83,2143.83h2216.9c6.76,0,12.24-5.48,12.24-12.24l0,0c0-6.76-5.48-12.24-12.24-12.24H20.83
	c-6.76,0-12.24,5.48-12.24,12.24l0,0C8.6,2138.35,14.08,2143.83,20.83,2143.83z"/>
<g>
	<g>
		<path class="st1" d="M618.22,2022.36L618.22,2022.36c-68.41,0-123.88-55.46-123.88-123.88v-168.87h247.75v168.87
			C742.09,1966.9,686.63,2022.36,618.22,2022.36z"/>
		<rect x="480.61" y="1857.24" class="st1" width="13.73" height="262.12"/>
		<rect x="742.09" y="1857.24" class="st1" width="13.73" height="262.12"/>
		<rect x="637.03" y="1857.24" class="st1" width="13.73" height="262.12"/>
	</g>
	<rect x="480.61" y="2022.36" class="st1" width="262.12" height="13.73"/>
</g>
<path class="st2" d="M811.14,1450.62c14.95,21.53-15.14,40.09-19.83,69.94c-4.69,29.85,29.5,46.64-6.76,85.72
	c-22.33,24.07-41.19-7.9-59.34,28.99c-18.15,36.89-3.85,43.11-24.25,56.38c-35.57,23.14-89.99-28-71.69-64.85
	c18.3-36.85,55.33-33.55,38.2-63.87c-17.13-30.32-23.5-43.38,6.04-58.96c36.56-19.28,68.77-1.57,71.72-29.78
	C748.17,1445.98,791.37,1422.14,811.14,1450.62z"/>
<path class="st3" d="M654.86,1727.92l-6.15-1.22c28.82-145.69,124.38-247.7,125.35-248.72l4.55,4.32
	C777.66,1483.3,683.33,1584.07,654.86,1727.92z"/>
<path class="st4" d="M332.03,1396.79c-15.46,31.5,28.1,50.01,40.3,88.57c12.2,38.56-32.73,52.18,23.11,96.61
	c34.4,27.36,41.59,10.26,54.24,71.47c11.13,53.89,52.08,2.61,82.7,34.24c39.51,40.81,101.25-48.76,69.62-93.84
	c-31.63-45.08-68.54-33.42-51.97-76.99c16.57-43.56-3.19-76.39-45.41-91.06c-52.26-18.17-71.05,25.69-80.62-11.05
	C414.43,1377.99,352.47,1355.12,332.03,1396.79z"/>
<path class="st5" d="M594.6,1732.33c-66.63-184.74-211.69-299.01-213.14-300.15l5.15-6.63c1.48,1.15,148.44,116.93,215.89,303.93
	L594.6,1732.33z"/>
<circle class="st6" cx="776.15" cy="691.11" r="529.81"/>
<path class="st7" d="M910.29,656.33c0.56-4.13,0.95-8.32,0.95-12.61c0-51.57-41.8-93.37-93.37-93.37
	c-38.69,0-71.88,23.53-86.04,57.05c-11.53-10.27-26.68-16.56-43.33-16.56c-36.04,0-65.25,29.21-65.25,65.25h-12.18
	c-34.65,0-63,28.35-63,63v0c0,34.65,28.35,63,63,63h294.57c34.65,0,63-28.35,63-63v0C968.64,686.02,942.78,658.74,910.29,656.33z"/>
<path class="st8" d="M918.98,1328.62h-307.9c-13.27,0-24.03-10.76-24.03-24.03v-256.8c0-13.27,10.76-24.03,24.03-24.03h307.9
	c13.27,0,24.03,10.76,24.03,24.03v256.8C943.02,1317.86,932.26,1328.62,918.98,1328.62z"/>
<g>
	<g>
		<path class="st9" d="M876.5,1209.81H654.44c-7.27,0-13.21-5.95-13.21-13.21l0,0c0-7.27,5.95-13.21,13.21-13.21H876.5
			c7.27,0,13.21,5.95,13.21,13.21l0,0C889.72,1203.87,883.77,1209.81,876.5,1209.81z"/>
		<path class="st9" d="M876.5,1252.37H654.44c-7.27,0-13.21-5.95-13.21-13.21l0,0c0-7.27,5.95-13.21,13.21-13.21H876.5
			c7.27,0,13.21,5.95,13.21,13.21l0,0C889.72,1246.42,883.77,1252.37,876.5,1252.37z"/>
		<g>
			<path class="st10" d="M695.9,1240.33c0,2.57-2.08,4.65-4.65,4.65c-2.57,0-4.65-2.08-4.65-4.65c0-2.57,2.08-4.65,4.65-4.65
				C693.82,1235.67,695.9,1237.76,695.9,1240.33z"/>
			<path class="st10" d="M711.85,1240.33c0,2.57-2.08,4.65-4.65,4.65c-2.57,0-4.65-2.08-4.65-4.65c0-2.57,2.08-4.65,4.65-4.65
				C709.77,1235.67,711.85,1237.76,711.85,1240.33z"/>
			<path class="st10" d="M727.8,1240.33c0,2.57-2.08,4.65-4.65,4.65s-4.65-2.08-4.65-4.65c0-2.57,2.08-4.65,4.65-4.65
				S727.8,1237.76,727.8,1240.33z"/>
			<path class="st10" d="M743.75,1240.33c0,2.57-2.08,4.65-4.65,4.65c-2.57,0-4.65-2.08-4.65-4.65c0-2.57,2.08-4.65,4.65-4.65
				C741.66,1235.67,743.75,1237.76,743.75,1240.33z"/>
			<path class="st10" d="M759.7,1240.33c0,2.57-2.08,4.65-4.65,4.65c-2.57,0-4.65-2.08-4.65-4.65c0-2.57,2.08-4.65,4.65-4.65
				C757.61,1235.67,759.7,1237.76,759.7,1240.33z"/>
			<path class="st10" d="M775.64,1240.33c0,2.57-2.08,4.65-4.65,4.65c-2.57,0-4.65-2.08-4.65-4.65c0-2.57,2.08-4.65,4.65-4.65
				C773.56,1235.67,775.64,1237.76,775.64,1240.33z"/>
			<path class="st10" d="M791.59,1240.33c0,2.57-2.08,4.65-4.65,4.65c-2.57,0-4.65-2.08-4.65-4.65c0-2.57,2.08-4.65,4.65-4.65
				C789.51,1235.67,791.59,1237.76,791.59,1240.33z"/>
			<path class="st10" d="M807.54,1240.33c0,2.57-2.08,4.65-4.65,4.65c-2.57,0-4.65-2.08-4.65-4.65c0-2.57,2.08-4.65,4.65-4.65
				C805.46,1235.67,807.54,1237.76,807.54,1240.33z"/>
			<path class="st10" d="M823.49,1240.33c0,2.57-2.08,4.65-4.65,4.65c-2.57,0-4.65-2.08-4.65-4.65c0-2.57,2.08-4.65,4.65-4.65
				C821.41,1235.67,823.49,1237.76,823.49,1240.33z"/>
		</g>
		<g>
			<circle class="st9" cx="765.54" cy="1095.37" r="51.05"/>
			<g>
				<g>
					<path class="st11" d="M765.62,1093.31c4.98,0,9.58-2.43,12.52-6.13c2.17-2.68,3.45-6.13,3.45-9.97c0-8.82-7.16-16.1-15.97-16.1
						c-8.95,0-16.1,7.29-16.1,16.1c0,3.83,1.28,7.29,3.45,9.97C755.9,1090.89,760.5,1093.31,765.62,1093.31z"/>
				</g>
				<path class="st11" d="M793.91,1122.01c0,10.16-56.75,10.16-56.75,0l0.02-11.84c2.24-16.19,52.12-16.87,56.74,0L793.91,1122.01z"
					/>
			</g>
		</g>
		<path class="st12" d="M665.45,1236.72v-0.71c0-2.87-2.33-5.2-5.2-5.2s-5.2,2.33-5.2,5.2v0.71h-0.79v9.37
			c0,1.62,12.01,1.62,12.01,0v-9.37H665.45z M656.91,1236.01c0-1.8,1.11-3.43,3.35-3.43c2.24,0,3.38,1.53,3.38,3.43v0.71h-6.73
			V1236.01z M661.14,1241.44v2.71c0,0.49-0.42,0.83-0.9,0.83c-0.49,0-0.83-0.35-0.83-0.83v-2.71c-0.49-0.28-0.83-0.76-0.83-1.39
			c0-0.9,0.76-1.67,1.67-1.67c0.9,0,1.67,0.76,1.67,1.67C661.9,1240.67,661.55,1241.16,661.14,1241.44z"/>
		<g>
			<g>
				<g>
					<path class="st12" d="M660.26,1195.64c1.05,0,2.02-0.51,2.64-1.29c0.46-0.57,0.73-1.29,0.73-2.1c0-1.86-1.51-3.4-3.37-3.4
						c-1.89,0-3.4,1.54-3.4,3.4c0,0.81,0.27,1.54,0.73,2.1C658.21,1195.13,659.18,1195.64,660.26,1195.64z"/>
				</g>
				<path class="st12" d="M666.23,1201.7c0,2.14-12.04,2.14-12.04,0l0.07-2.5c0.47-3.42,11-3.56,11.97,0L666.23,1201.7z"/>
			</g>
			<path class="st10" d="M738.05,1200.48h-48.66c-2.13,0-3.88-1.74-3.88-3.88l0,0c0-2.13,1.74-3.88,3.88-3.88h48.66
				c2.13,0,3.88,1.74,3.88,3.88l0,0C741.93,1198.73,740.18,1200.48,738.05,1200.48z"/>
			<path class="st10" d="M802.23,1200.48h-48.66c-2.13,0-3.88-1.74-3.88-3.88l0,0c0-2.13,1.74-3.88,3.88-3.88h48.66
				c2.13,0,3.88,1.74,3.88,3.88l0,0C806.11,1198.73,804.37,1200.48,802.23,1200.48z"/>
		</g>
	</g>
	<path class="st13" d="M782.98,1293.6h-46.56c-5.57,0-10.09-4.52-10.09-10.09v-2.46c0-5.57,4.52-10.09,10.09-10.09h46.56
		c5.57,0,10.09,4.52,10.09,10.09v2.46C793.07,1289.08,788.55,1293.6,782.98,1293.6z"/>
</g>
<g>
	<g>
		<path class="st14" d="M265.76,704.89c-22.79,20.91-54.37,37.34-89.09,46.3l-0.34,76.61c-0.16,35.05,13.77,66.76,41.39,94.26
			c18.15,18.06,37.23,29.27,46.91,34.3c0.42-0.21,0.87-0.45,1.32-0.68v-250.6C265.9,705.01,265.83,704.95,265.76,704.89z"/>
	</g>
	<g>
		<path class="st4" d="M265.96,705.07v250.6c10.07-5.24,28.37-16.07,45.9-33.2c27.87-27.24,42.08-58.83,42.23-93.88l0.34-76.61
			C319.89,742.75,288.55,726.1,265.96,705.07z"/>
	</g>
	<g>
		<path class="st9" d="M225.62,815.49v59.35c0,6.61,80.69,6.61,80.69,0v-59.35H225.62z M270.04,847.01v16.82
			c0,2.24-1.82,4.1-4.06,4.1c-2.28,0-4.1-1.86-4.1-4.1v-16.86c-3.46-1.56-5.89-5.05-5.89-9.08c0-5.51,4.48-9.95,9.99-9.95
			c5.51,0,9.95,4.44,9.95,9.95C275.93,841.96,273.54,845.45,270.04,847.01z"/>
		<path class="st9" d="M299.24,811.26h-8.17v-4c0-13.85-11.27-25.11-25.11-25.11c-13.85,0-25.11,11.27-25.11,25.11v4h-8.17v-4
			c0-18.35,14.93-33.28,33.28-33.28c18.35,0,33.28,14.93,33.28,33.28V811.26z"/>
	</g>
</g>
<g>
	<g>
		<rect x="866.05" y="90.06" class="st4" width="119.72" height="149.44"/>
	</g>
	<g>
		<rect x="881.57" y="105.49" class="st15" width="119.72" height="149.44"/>
	</g>
	<g>
		<rect x="901.29" y="120.64" class="st15" width="119.72" height="149.44"/>
	</g>
	<rect x="915.63" y="136.07" class="st4" width="119.72" height="149.44"/>
	<g>
		<rect x="954.8" y="160.61" class="st16" width="61.93" height="9.72"/>
		<rect x="936.49" y="183.44" class="st16" width="80.24" height="9.72"/>
		<rect x="936.49" y="206.28" class="st16" width="80.24" height="9.72"/>
		<rect x="936.49" y="229.11" class="st16" width="80.24" height="9.72"/>
		<rect x="936.49" y="251.95" class="st16" width="80.24" height="9.72"/>
	</g>
</g>
<g>
	<path class="st17" d="M1157.46,123.81c-2.2-3.97-5.12-7.34-8.48-9.99l0.84-1.07l1.66-2.11l0.02-0.03
		c-3.85-3.04-8.23-5.27-12.88-6.59l-1.12,3.92c-4.21-1.19-8.64-1.58-13.06-1.05l-0.48-4.06c-4.7,0.54-9.38,2-13.78,4.44l1.99,3.58
		c-3.98,2.21-7.34,5.12-9.99,8.48l-3.21-2.53c-3.04,3.85-5.27,8.24-6.59,12.88l3.92,1.12c-1.19,4.21-1.58,8.64-1.05,13.06
		l-4.06,0.48c0.54,4.7,2,9.38,4.44,13.78l3.58-1.99c2.21,3.98,5.12,7.34,8.48,9.99l-1.79,2.27l-0.72,0.93l-0.01,0.01
		c3.85,3.04,8.24,5.27,12.88,6.59l1.12-3.92c4.21,1.19,8.66,1.58,13.07,1.04l0.48,4.06c4.7-0.54,9.37-1.99,13.76-4.43l-1.99-3.58
		c3.98-2.21,7.35-5.12,10-8.49l2.49,1.97l0.72,0.56c3.04-3.85,5.25-8.23,6.58-12.87l-3.92-1.12c1.19-4.21,1.58-8.66,1.05-13.08
		l4.06-0.48c-0.55-4.69-2.01-9.36-4.44-13.75L1157.46,123.81z M1137.11,155.79c-8.74,4.85-19.74,1.7-24.59-7.04
		c-4.84-8.73-1.69-19.73,7.05-24.58c8.73-4.84,19.73-1.69,24.57,7.03C1148.99,139.95,1145.84,150.95,1137.11,155.79z"/>
</g>
<path class="st18" d="M1197.99,380.73L1197.99,380.73c-1.81,0-3.28,1.47-3.28,3.28v1.15c0,1.81,1.47,3.28,3.28,3.28l0,0
	c1.81,0,3.28-1.47,3.28-3.28v-1.15C1201.27,382.2,1199.8,380.73,1197.99,380.73z"/>
<g>
	<path class="st19" d="M1231.71,843.06v-9.26c0-4.2-3.39-7.61-7.57-7.61h-80.65c-4.18,0-7.58,3.41-7.58,7.61v163.61h208.62V843.06
		H1231.71z"/>
	<polygon class="st9" points="1353.2,848.68 1148.63,848.68 1135.9,997.41 1343.51,997.41 	"/>
	<path class="st20" d="M1344.53,997.41H1135.9l22.14-146.88c0.65-4.3,4.32-7.47,8.65-7.47h190.93c5.35,0,9.45,4.79,8.65,10.1
		L1344.53,997.41z"/>
	<g>
		<ellipse class="st19" cx="1366.37" cy="848.68" rx="47.8" ry="48.01"/>
		<path class="st19" d="M1366.37,898.45c-27.32,0-49.56-22.33-49.56-49.77c0-27.44,22.23-49.77,49.56-49.77
			c27.32,0,49.56,22.33,49.56,49.77C1415.93,876.12,1393.69,898.45,1366.37,898.45z M1366.37,802.43
			c-25.4,0-46.05,20.75-46.05,46.26s20.65,46.26,46.05,46.26c25.4,0,46.05-20.75,46.05-46.26S1391.77,802.43,1366.37,802.43z"/>
	</g>
	<g>
		<path class="st9" d="M1343.36,839.99v34c0,3.78,46.02,3.78,46.02,0v-34H1343.36z M1368.7,858.05v9.64c0,1.28-1.04,2.35-2.32,2.35
			c-1.3,0-2.34-1.07-2.34-2.35v-9.66c-1.97-0.89-3.36-2.89-3.36-5.2c0-3.15,2.56-5.7,5.7-5.7s5.67,2.54,5.67,5.7
			C1372.05,855.16,1370.69,857.16,1368.7,858.05z"/>
		<path class="st9" d="M1385.35,837.57h-4.66v-2.29c0-7.93-6.42-14.39-14.32-14.39c-7.9,0-14.32,6.45-14.32,14.39v2.29h-4.66v-2.29
			c0-10.51,8.51-19.06,18.98-19.06c10.46,0,18.98,8.55,18.98,19.06V837.57z"/>
	</g>
</g>
<circle class="st21" cx="1248.82" cy="234.22" r="23.86"/>
<ellipse transform="matrix(0.1694 -0.9856 0.9856 0.1694 198.4133 881.8895)" class="st21" cx="622.39" cy="323.24" rx="23.86" ry="23.86"/>
<circle class="st22" cx="1416.1" cy="640.86" r="12.48"/>
<ellipse transform="matrix(0.2285 -0.9735 0.9735 0.2285 -561.8257 619.5413)" class="st21" cx="109.99" cy="664.26" rx="12.48" ry="12.48"/>
<ellipse transform="matrix(0.9007 -0.4344 0.4344 0.9007 -367.3679 287.708)" class="st21" cx="445.8" cy="947.63" rx="23.86" ry="23.86"/>
<g>
	<path class="st21" d="M688.05,86.42L688.05,86.42c-2.28,0-4.13-1.85-4.13-4.13V38.03c0-2.28,1.85-4.13,4.13-4.13l0,0
		c2.28,0,4.13,1.85,4.13,4.13v44.25C692.18,84.56,690.33,86.42,688.05,86.42z"/>
	<path class="st21" d="M661.79,60.16L661.79,60.16c0-2.28,1.85-4.13,4.13-4.13h44.25c2.28,0,4.13,1.85,4.13,4.13l0,0
		c0,2.28-1.85,4.13-4.13,4.13h-44.25C663.64,64.29,661.79,62.44,661.79,60.16z"/>
</g>
<g>
	<path class="st22" d="M1158.5,654.64L1158.5,654.64c-2.28,0-4.13-1.85-4.13-4.13v-44.25c0-2.28,1.85-4.13,4.13-4.13l0,0
		c2.28,0,4.13,1.85,4.13,4.13v44.25C1162.63,652.79,1160.78,654.64,1158.5,654.64z"/>
	<path class="st22" d="M1132.24,628.38L1132.24,628.38c0-2.28,1.85-4.13,4.13-4.13h44.25c2.28,0,4.13,1.85,4.13,4.13l0,0
		c0,2.28-1.85,4.13-4.13,4.13h-44.25C1134.09,632.51,1132.24,630.66,1132.24,628.38z"/>
</g>
<g>
	<path class="st22" d="M1113.5,1237.5L1113.5,1237.5c-2.28,0-4.13-1.85-4.13-4.13v-44.25c0-2.28,1.85-4.13,4.13-4.13l0,0
		c2.28,0,4.13,1.85,4.13,4.13v44.25C1117.64,1235.65,1115.79,1237.5,1113.5,1237.5z"/>
	<path class="st22" d="M1087.24,1211.24L1087.24,1211.24c0-2.28,1.85-4.13,4.13-4.13h44.25c2.28,0,4.13,1.85,4.13,4.13l0,0
		c0,2.28-1.85,4.13-4.13,4.13h-44.25C1089.09,1215.37,1087.24,1213.52,1087.24,1211.24z"/>
</g>
<circle class="st23" cx="745.19" cy="907.19" r="13.23"/>
<g>
	<path class="st20" d="M325.5,340c0,4.56,0.01,8.81-0.01,13.07c-0.01,1.11-0.03,2.24-0.22,3.33c-0.69,3.83-4.12,6.51-8.06,6.36
		c-3.79-0.15-6.97-3.08-7.42-6.88c-0.07-0.58-0.1-1.18-0.1-1.77c0-33.86-0.01-67.72,0-101.58c0-4.49,2.09-7.41,5.91-8.45
		c4.24-1.15,8.74,1.55,9.62,5.84c0.22,1.08,0.27,2.21,0.27,3.32c0.02,19.55,0.01,39.11,0.01,58.66c0,0.85,0,1.69,0,2.61
		c59.17,0,118.2,0,177.38,0c0.05,0.43,0.17,0.92,0.17,1.41c0.01,12.66,0.05,25.33-0.01,37.99c-0.03,6.01-5.08,9.84-10.42,8.03
		c-3.31-1.12-5.32-4.02-5.37-7.9c-0.05-4.26-0.01-8.53-0.02-12.8c0-0.45-0.08-0.9-0.12-1.27C433.25,340,379.47,340,325.5,340z"/>
	<path class="st20" d="M383.21,307.88c0-10.87-0.44-21.64,0.16-32.35c0.4-7.12,7.11-12.48,14.26-12.87
		c0.79-0.04,1.57-0.07,2.36-0.07c23.43,0,46.86,0.15,70.28-0.06c15.9-0.14,26.95,9.78,30.75,20.58c0.99,2.81,1.68,5.83,1.85,8.79
		c0.29,5.27,0.08,10.58,0.08,15.97C462.99,307.88,423.18,307.88,383.21,307.88z"/>
	<path class="st20" d="M374.11,285.21c0.03,10.69-8.51,19.28-19.18,19.3c-10.64,0.02-19.3-8.56-19.35-19.19
		c-0.06-10.54,8.66-19.3,19.24-19.35C365.42,265.92,374.09,274.56,374.11,285.21z"/>
</g>
<g>
	<path class="st8" d="M453.23,52c0.75-2.04,1.81-3.89,4.15-4.26c1.25-0.2,2.61-0.02,3.87,0.24c2,0.41,3.96,1.04,6.01,1.6
		c1.74-4.21,3.43-8.33,5.13-12.45c0.48-1.17,0.95-2.35,1.43-3.53c2.66-6.46,7.94-10.01,14.9-10.01c21.26,0,42.52,0,63.78,0
		c6.68,0,12.08,3.64,14.62,9.84c2.19,5.34,4.38,10.68,6.64,16.17c1.99-0.54,3.94-1.12,5.92-1.58c1.14-0.26,2.34-0.51,3.49-0.42
		c2.57,0.2,4.51,2.41,4.67,5.2c0.1,1.66,0.11,3.34,0,4.99c-0.24,3.6-2.9,6.26-6.48,6.62c-0.43,0.04-0.85,0.1-1.45,0.16
		c0.4,0.96,0.77,1.79,1.08,2.63c2.21,6.06,3.4,12.31,3.41,18.77c0.02,10.61,0.02,21.21,0,31.82c-0.01,4.91-2.99,7.84-7.88,7.86
		c-0.53,0-1.05,0-1.58,0c-2.24,0-4.47,0.02-6.71,0c-4.44-0.04-7.4-2.96-7.48-7.42c-0.04-2.28-0.01-4.56-0.01-6.84
		c0-0.43-0.04-0.85-0.06-1.36c-26.8,0-53.51,0-80.37,0c0,2.8,0.04,5.54-0.01,8.29c-0.08,4.27-3.08,7.24-7.33,7.32
		c-0.79,0.02-1.58,0-2.37,0c-2.24,0-4.47,0.04-6.71-0.01c-4.12-0.09-7.2-3.04-7.22-7.15c-0.06-11.53-0.12-23.06,0.03-34.58
		c0.08-6.17,1.47-12.15,3.83-17.88c0.18-0.44,0.32-0.89,0.52-1.43c-0.85-0.12-1.64-0.15-2.38-0.35c-2.51-0.67-4.2-2.25-5.06-4.71
		c-0.11-0.33-0.25-0.64-0.38-0.96C453.23,56.39,453.23,54.2,453.23,52z M520.41,65.92c14.55,0,29.1,0,43.64-0.01
		c0.87,0,1.76-0.06,2.6-0.29c1.54-0.42,2.41-1.65,2.31-3.25c-0.05-0.77-0.26-1.56-0.55-2.27c-3.4-8.34-6.79-16.69-10.27-25.01
		c-1.57-3.76-4.5-5.75-8.6-5.75c-19.37-0.03-38.74-0.03-58.1,0c-4.04,0.01-6.95,1.98-8.51,5.69c-3.5,8.35-6.91,16.74-10.33,25.12
		c-1.45,3.57,0.03,5.73,3.91,5.76c0.35,0,0.7,0,1.05,0C491.84,65.92,506.13,65.92,520.41,65.92z M557.67,80.92
		c-3.2,0-6.39-0.01-9.59,0c-2.37,0.01-3.45,1.06-3.48,3.44c-0.04,2.85-0.04,5.69,0,8.54c0.03,2.36,1.12,3.46,3.48,3.47
		c6.35,0.03,12.7,0.03,19.05,0c2.39-0.01,3.44-1.09,3.46-3.46c0.02-2.85,0.02-5.69,0-8.54c-0.02-2.41-1.05-3.44-3.45-3.45
		C563.98,80.91,560.82,80.92,557.67,80.92z M483.28,80.92c-3.15,0-6.31-0.01-9.46,0c-2.51,0.01-3.55,1-3.57,3.47
		c-0.02,2.85-0.02,5.69,0,8.54c0.02,2.36,1.09,3.43,3.48,3.44c6.35,0.02,12.7,0.03,19.05,0c2.37-0.01,3.42-1.1,3.44-3.49
		c0.03-2.85,0.03-5.69,0-8.54c-0.03-2.4-1.08-3.41-3.49-3.42C489.58,80.91,486.43,80.92,483.28,80.92z"/>
</g>
<g>
	<path class="st17" d="M341.68,1249.05c3.6-0.14,6.9,0.83,9.92,2.78c0.99,0.64,1.95,1.32,2.93,1.97c4.07,2.73,9.2,2.73,13.26-0.03
		c2.67-1.82,5.29-3.71,8.56-4.33c5.12-0.98,9.97-0.42,14.39,2.54c0.91,0.61,1.82,1.23,2.74,1.85c4.01,2.69,9.16,2.69,13.17-0.02
		c2.67-1.81,5.29-3.72,8.55-4.35c5.16-1,10.01-0.39,14.51,2.53c1.99,1.29,4.02,2.69,6.24,3.39c3.44,1.09,6.82,0.44,9.84-1.72
		c2.6-1.86,5.24-3.66,8.48-4.24c1.33-0.24,2.68-0.33,4.1-0.51c0,2.39,0,4.58,0,6.82c-0.19,0.04-0.37,0.11-0.54,0.11
		c-2.34-0.02-4.37,0.84-6.25,2.14c-2.53,1.75-5.05,3.54-8.15,4.15c-1.15,0.23-2.31,0.39-3.46,0.59c-0.61,0-1.22,0-1.82,0
		c-1.19-0.19-2.39-0.34-3.58-0.57c-3.18-0.62-5.75-2.47-8.34-4.25c-1.75-1.2-3.65-1.93-5.81-2.06c-2.97-0.17-5.61,0.57-8.02,2.31
		c-2.15,1.55-4.34,3.09-6.97,3.74c-1.46,0.36-2.97,0.56-4.45,0.83c-0.61,0-1.22,0-1.82,0c-1.16-0.18-2.32-0.33-3.47-0.56
		c-3.1-0.61-5.59-2.43-8.17-4.09c-1.25-0.81-2.64-1.57-4.08-1.91c-3.42-0.81-6.65-0.26-9.66,1.76c-2.09,1.41-4.3,2.71-6.61,3.71
		c-1.59,0.68-3.45,0.75-5.19,1.1c-0.61,0-1.22,0-1.82,0c-1.15-0.19-2.31-0.35-3.45-0.58c-3.17-0.63-5.73-2.47-8.32-4.25
		c-2.02-1.39-4.21-2.21-6.7-2.01C341.68,1253.61,341.68,1251.33,341.68,1249.05z"/>
	<path class="st17" d="M400.97,1262.73c1.48-0.27,2.99-0.47,4.45-0.83c2.63-0.65,4.82-2.18,6.97-3.74c2.41-1.74,5.05-2.49,8.02-2.31
		c2.16,0.13,4.06,0.86,5.81,2.06c2.6,1.78,5.16,3.63,8.34,4.25c1.19,0.23,2.39,0.38,3.58,0.57
		C425.75,1262.73,413.36,1262.73,400.97,1262.73z"/>
	<path class="st17" d="M361.98,1262.73c1.74-0.34,3.6-0.41,5.19-1.1c2.31-0.99,4.52-2.3,6.61-3.71c3.01-2.02,6.24-2.57,9.66-1.76
		c1.43,0.34,2.82,1.1,4.08,1.91c2.58,1.67,5.07,3.48,8.17,4.09c1.15,0.23,2.31,0.38,3.47,0.56
		C386.76,1262.73,374.37,1262.73,361.98,1262.73z"/>
	<path class="st17" d="M341.68,1255.89c2.5-0.2,4.69,0.62,6.7,2.01c2.59,1.78,5.14,3.63,8.32,4.25c1.14,0.23,2.3,0.39,3.45,0.58
		c-6.13,0-12.26,0-18.47,0C341.68,1260.45,341.68,1258.17,341.68,1255.89z"/>
	<path class="st17" d="M351.52,1243.79c2.87-1.5,5.7-3.1,8.65-4.47c10.07-4.69,20.66-7.52,31.74-8.46c2.8-0.24,5.62-0.25,8.43-0.31
		c0.66-0.01,1.01-0.16,1.25-0.83c5.12-14.12,10.26-28.24,15.39-42.36c0.06-0.17,0.11-0.34,0.29-0.86c-2.79-0.3-5.44-0.67-8.11-0.84
		c-1.35-0.08-2.57-0.27-3.78-0.95c-6.44-3.6-13.41-5.62-20.64-6.82c-0.18-0.03-0.35-0.08-0.53-0.13
		c4.7-18.2,23.46-32.82,46.19-27.34c0.54-1.42,1.08-2.85,1.65-4.37c2.14,0.78,4.2,1.53,6.38,2.32c-0.52,1.47-1.02,2.88-1.56,4.42
		c10.83,5.4,17.78,13.98,20.62,25.75c2.06,8.55,0.74,16.81-2.75,24.89c-0.35-0.18-0.72-0.34-1.06-0.54
		c-6.46-3.82-13.31-6.6-20.7-8.02c-0.53-0.1-1.04-0.41-1.49-0.72c-2.53-1.73-5.03-3.49-7.74-5.37c-5.17,14.2-10.21,28.04-15.33,42.1
		c14.4,1.36,27.79,5.62,40.09,12.98c-2.51,1.58-4.96,3.24-7.52,4.68c-1.42,0.8-3.03,0.66-4.46-0.21c-1.13-0.69-2.21-1.48-3.32-2.21
		c-8.02-5.31-19.37-5.31-27.38,0.01c-0.89,0.59-1.77,1.18-2.65,1.78c-2.19,1.48-4.05,1.5-6.22,0.01c-2.54-1.74-5.07-3.5-8.05-4.42
		c-7.71-2.38-15.06-1.73-21.97,2.61c-0.96,0.61-1.89,1.27-2.84,1.91c-1.97,1.32-3.89,1.32-5.85,0.06
		C356.06,1246.66,353.85,1245.28,351.52,1243.79z"/>
	<path class="st17" d="M354.4,1215.55c-3.04,0.12-6.07,0.23-9.35,0.35c1.74-2.77,3.38-5.39,5.07-8.08c-2.8-1.48-5.54-2.93-8.43-4.46
		c2.88-1.52,5.59-2.96,8.43-4.46c-1.67-2.66-3.31-5.26-4.96-7.89c3.19,0,6.24,0,9.24,0c0-3.03,0-6.08,0-9.25
		c2.6,1.63,5.21,3.28,7.9,4.97c1.48-2.8,2.91-5.5,4.46-8.42c1.53,2.89,2.96,5.59,4.45,8.42c2.67-1.67,5.29-3.31,7.9-4.95
		c0,3.13,0,6.18,0,9.24c2.96,0,6.01,0,9.24,0c-1.63,2.59-3.25,5.16-4.96,7.89c2.75,1.46,5.48,2.91,8.42,4.46
		c-2.87,1.52-5.59,2.96-8.42,4.46c1.67,2.66,3.31,5.27,4.97,7.9c-3.16,0-6.21,0-9.24,0c0,2.97,0,6.05,0,9.24
		c-2.6-1.63-5.22-3.28-7.9-4.96c-1.48,2.8-2.91,5.51-4.45,8.42c-1.54-2.9-2.98-5.62-4.46-8.42c-2.67,1.68-5.26,3.31-7.9,4.96
		C354.4,1221.81,354.4,1218.74,354.4,1215.55z M366.84,1190.86c-6.95-0.04-12.58,5.52-12.62,12.43
		c-0.03,6.92,5.52,12.54,12.46,12.63c6.85,0.08,12.57-5.58,12.62-12.47C379.35,1196.53,373.77,1190.9,366.84,1190.86z"/>
</g>
<g>
	<path class="st17" d="M84.87,537.2c0-2.6,0-5.2,0-7.81c0.21,0.04,0.42,0.11,0.63,0.11c9.84,0.01,19.69,0.02,29.53-0.03
		c0.54,0,1.21-0.42,1.59-0.84c4.28-4.78,8.51-9.61,12.75-14.42c0.25-0.28,0.47-0.58,0.72-0.88c-0.17-0.13-0.26-0.22-0.37-0.28
		c-3.46-1.96-6.91-3.95-10.39-5.86c-0.39-0.22-1.06-0.23-1.48-0.05c-3.29,1.41-6.58,1.46-9.85,0.05c-5.82-2.51-8.89-9.81-6.97-16.67
		c0.97,0,1.98,0,3,0c-0.04-0.22-0.03-0.32-0.07-0.39c-3.05-5.35-5.16-11.05-6.36-17.09c-0.07-0.37-0.6-0.78-1.01-0.92
		c-3.78-1.38-6.4-3.91-7.69-7.74c-1.02-3.03-0.52-6.16-0.64-9.39c3.1,0,6.02,0,8.74,0c0.98-3.56,1.71-6.99,2.89-10.28
		c1.19-3.33,2.81-6.5,4.32-9.91c-3.94-3.76-3.58-8.82-3.34-13.98c0.56,0,1.03,0,1.51,0c4.38,0,8.76,0.03,13.14-0.03
		c0.63-0.01,1.38-0.24,1.87-0.63c5.07-3.95,10.62-7.01,16.73-9c1.76-0.57,3.55-1.05,5.41-1.6c0-1.71,0-3.39,0-5.13
		c8.02,0,15.93,0,23.8,0c0.08,0.15,0.15,0.22,0.15,0.29c0.02,1.26,0.12,2.52,0.02,3.77c-0.08,1.05,0.36,1.4,1.31,1.64
		c7.42,1.86,14.09,5.24,20.13,9.92c0.56,0.43,1.39,0.73,2.09,0.74c4.55,0.07,9.11,0.03,13.66,0.04c0.46,0,0.92,0.04,1.41,0.06
		c0.25,5.32,0.54,10.51-3.68,14.24c1.48,3.38,3.06,6.48,4.21,9.73c1.14,3.24,1.86,6.64,2.81,10.14c2.76,0,5.69,0,8.76,0
		c0,1.94,0.02,3.74,0,5.55c-0.06,5.39-3.21,9.79-8.32,11.52c-0.74,0.25-1,0.6-1.14,1.33c-1.12,5.74-3.12,11.16-5.99,16.26
		c-0.14,0.25-0.23,0.52-0.41,0.96c1.35,0,2.54,0,3.83,0c0,2.03,0.03,3.93-0.01,5.83c-0.02,0.82-0.13,1.65-0.32,2.44
		c-1.81,7.56-9.86,11.4-16.96,8.13c-0.4-0.18-1.04-0.3-1.37-0.11c-3.76,2.21-7.48,4.49-11.25,6.77c0.1,0.12,0.4,0.49,0.71,0.84
		c4.08,4.67,8.18,9.32,12.23,14.02c0.63,0.73,1.28,0.99,2.22,0.99c9.76-0.03,19.51-0.02,29.27-0.02c0.47,0,0.94-0.07,1.41-0.11
		c0,2.6,0,5.21,0,7.81c-0.51,0.04-1.03,0.11-1.54,0.11c-43.38,0.01-86.76,0.01-130.14,0C85.9,537.31,85.39,537.24,84.87,537.2z
		 M151.27,450.27c-6.98-0.02-12.66,5.63-12.66,12.61c0,6.92,5.62,12.59,12.52,12.64c6.97,0.04,12.66-5.57,12.74-12.56
		C163.95,456.04,158.23,450.29,151.27,450.27z M126.13,529.42c16.64,0,33.06,0,49.65,0c-0.17-0.28-0.24-0.42-0.34-0.54
		c-3.62-4.15-7.24-8.29-10.88-12.42c-0.21-0.24-0.66-0.41-0.97-0.37c-1.16,0.12-2.14,0.45-3,1.47c-4.56,5.4-12.75,5.7-17.6,0.59
		c-1.13-1.19-2.31-1.78-3.83-2.07c-0.82-0.16-1.32-0.05-1.89,0.6c-3.38,3.9-6.81,7.75-10.22,11.61
		C126.78,528.6,126.53,528.93,126.13,529.42z M126.42,467c-5.18,0-10.25-0.01-15.31,0.03c-0.34,0-0.7,0.39-1.01,0.66
		c-1.33,1.15-2.59,2.4-4,3.46c-0.6,0.45-0.73,0.81-0.58,1.48c1.14,5.21,3.19,10.03,5.81,14.67c1.38,2.45,2.94,3.83,5.89,3.32
		c0.9-0.15,1.61-0.29,2.26-0.98c1.36-1.46,2.8-2.84,4.22-4.25c2.46-2.44,4.93-4.87,7.47-7.37C128.7,474.7,127.17,471.1,126.42,467z
		 M171.65,477.57c0.08,0.17,0.09,0.27,0.15,0.32c4.07,4.08,8.14,8.17,12.23,12.22c0.27,0.27,0.75,0.41,1.15,0.43
		c0.99,0.06,2,0.08,2.99-0.01c0.4-0.04,0.91-0.29,1.14-0.62c3.8-5.27,6.33-11.12,7.64-17.47c0.07-0.36-0.23-0.93-0.53-1.21
		c-1.31-1.24-2.68-2.42-4.04-3.6c-0.3-0.26-0.68-0.61-1.03-0.61c-4.85-0.04-9.71-0.04-14.56,0c-0.28,0-0.76,0.31-0.81,0.55
		C175.22,471.23,173.76,474.57,171.65,477.57z M147.57,438c0-5.43,0.01-10.71-0.04-16c0-0.32-0.47-0.7-0.8-0.95
		c-1.43-1.09-2.88-2.17-4.36-3.2c-0.4-0.28-0.99-0.56-1.41-0.47c-5.47,1.19-10.55,3.33-15.2,6.45c-0.43,0.29-0.74,0.97-0.84,1.52
		c-0.23,1.31-0.21,2.67-0.47,3.98c-0.15,0.78-0.01,1.26,0.55,1.81c3.3,3.25,6.58,6.54,9.84,9.83c0.51,0.52,0.92,1.14,1.39,1.73
		C139.82,440.16,143.47,438.67,147.57,438z M155.38,437.89c2.03,0.67,3.92,1.15,5.7,1.91c1.81,0.78,3.5,1.83,5.42,2.86
		c3.87-3.89,7.84-7.88,11.77-11.89c0.24-0.24,0.28-0.77,0.25-1.15c-0.11-1.37-0.25-2.75-0.47-4.11c-0.07-0.44-0.31-1-0.66-1.24
		c-4.72-3.24-9.87-5.54-15.46-6.78c-0.39-0.09-0.94,0.13-1.3,0.38c-1.52,1.04-3.01,2.13-4.48,3.24c-0.32,0.24-0.72,0.66-0.72,1
		C155.37,427.38,155.38,432.66,155.38,437.89z M139.5,504.06c2.79,0,5.4,0,8.02,0c0-5.51,0-10.87,0-16.3
		c-3.94-0.6-7.5-2.08-10.8-4.33c-0.4,0.38-0.75,0.7-1.08,1.04c-3.22,3.22-6.41,6.45-9.66,9.64c-0.72,0.71-1.11,1.4-1.14,2.45
		c-0.02,1.11-0.27,2.24-0.59,3.3c-0.23,0.75-0.12,1.13,0.53,1.58c4.29,2.93,8.93,5.1,13.93,6.51c0.22,0.06,0.47,0.04,0.79,0.06
		C139.5,506.71,139.5,505.5,139.5,504.06z M155.45,487.71c0,5.5,0,10.9,0,16.42c2.69,0,5.31,0,8.09,0c0,1.31,0,2.5,0,3.65
		c0.24,0.04,0.33,0.08,0.4,0.07c0.3-0.07,0.59-0.14,0.88-0.23c4.68-1.4,9-3.56,13.05-6.3c0.83-0.56,1.01-1.06,0.7-2
		c-0.31-0.93-0.45-1.95-0.46-2.94c-0.01-0.91-0.34-1.52-0.97-2.13c-2.79-2.73-5.54-5.5-8.29-8.27c-0.91-0.92-1.77-1.89-2.68-2.87
		C162.81,485.54,159.27,486.98,155.45,487.71z M112.39,459.19c4.54,0,8.87,0.01,13.2-0.02c0.29,0,0.8-0.3,0.84-0.52
		c0.67-3.86,2.22-7.35,4.33-10.37c-3.9-3.91-7.72-7.73-11.59-11.6c-2.11,1.24-4.48,1.91-7.08,1.76c-0.3-0.02-0.75,0.24-0.91,0.51
		c-2.99,4.93-4.99,10.23-5.99,16.09c2.43,0,4.75,0,7.18,0C112.39,456.45,112.39,457.73,112.39,459.19z M183.74,436.64
		c-3.97,3.98-7.89,7.9-11.79,11.8c0.78,1.5,1.74,3.06,2.41,4.74c0.69,1.72,1.04,3.56,1.64,5.32c0.1,0.31,0.64,0.65,0.99,0.66
		c1.64,0.07,3.29,0.03,4.94,0.03c2.68,0,5.36,0,8.22,0c0-1.44,0-2.76,0-4.2c2.46,0,4.74,0,7.03,0c-0.48-4.51-3.37-12.41-5.85-15.97
		c-0.19-0.27-0.59-0.55-0.9-0.55C188,438.47,185.73,437.85,183.74,436.64z"/>
	<path class="st17" d="M151.26,467.71c-2.65,0.01-4.8-2.1-4.84-4.76c-0.04-2.65,2.08-4.83,4.72-4.87c2.71-0.04,4.93,2.13,4.92,4.82
		C156.06,465.53,153.89,467.7,151.26,467.71z"/>
</g>
<g>
	<path class="st8" d="M1300.09,432.28c2.4-0.27,4.44-0.84,6.4-0.64c3.47,0.36,6.03,2.32,7.25,5.68c1.24,3.41,0.67,6.58-1.76,9.3
		c-1.54,1.72-3.1,3.45-4.89,4.88c-2.04,1.62-2.33,3.36-1.68,5.77c1.11,4.08,1.9,8.25,2.9,12.72c2.55-2.47,5.15-4.03,8.45-3.62
		c3.58,0.44,6.26,2.29,7.57,5.7c1.34,3.46,0.85,6.78-1.72,9.53c-2.68,2.87-5.61,5.5-8.25,8.41c-0.7,0.77-1.14,2.27-0.94,3.27
		c2.1,10.19,4.32,20.35,6.57,30.5c0.78,3.54,0.15,6.57-2.58,9.1c-1.69,1.57-3.27,3.25-4.91,4.87c-5.4,5.37-10.84,4.64-14.5-1.99
		c-10.85-19.63-21.7-39.26-32.55-58.9c-3.34-6.04-6.68-12.09-10.13-18.34c-0.6,0.45-1.15,0.78-1.62,1.21
		c-13.44,12.26-26.85,24.55-40.32,36.76c-1.39,1.26-1.91,2.56-1.99,4.39c-0.57,12.02-1.26,24.04-1.91,36.06
		c-0.01,0.17,0,0.34-0.02,0.51c-0.25,2.98-7.95,9.55-10.87,9.22c-2.58-0.29-4.07-1.88-4.96-4.23c-4.42-11.63-8.92-23.23-13.27-34.89
		c-0.75-2.01-1.78-3.16-3.84-3.93c-11.58-4.31-23.11-8.77-34.65-13.2c-5.27-2.02-6.01-6.15-2.27-10.38
		c3.38-3.82,6.98-5.9,12.42-5.92c10.57-0.05,21.14-0.99,31.71-1.67c1.06-0.07,2.39-0.53,3.08-1.28
		c12.73-13.81,25.39-27.69,38.06-41.56c0.17-0.18,0.28-0.41,0.58-0.85c-0.79-0.48-1.54-0.98-2.32-1.41
		c-25.08-13.86-50.17-27.71-75.26-41.56c-6.15-3.39-6.93-9.04-1.97-14.03c1.75-1.76,3.56-3.45,5.24-5.27
		c2.54-2.75,5.59-3.29,9.11-2.51c10.16,2.25,20.32,4.48,30.51,6.58c1,0.21,2.48-0.27,3.26-0.97c2.67-2.39,5.1-5.04,7.66-7.55
		c3.84-3.76,9.51-3.99,13.12-0.55c3.75,3.55,3.81,8.79,0.15,13.08c-0.22,0.26-0.42,0.52-0.9,1.12c4.6,1.01,8.99,1.86,13.31,2.99
		c2.11,0.55,3.5,0.13,4.86-1.53c1.29-1.58,2.85-2.94,4.32-4.37c3.56-3.49,8.09-4.13,11.87-1.69c3.78,2.44,5.06,6.89,3.31,11.51
		c-0.12,0.31-0.23,0.62-0.44,1.2c4.33,0.96,8.53,1.97,12.79,2.74c0.65,0.12,1.62-0.72,2.24-1.33c7.03-6.97,14.03-13.99,21.03-20.99
		c7.53-7.53,41.87-37.53,52.38-39.34c11.54-1.98,21.36,7.9,19.37,19.47c-1.84,10.7-32.09,45.09-39.75,52.72
		c-6.84,6.81-13.62,13.68-20.51,20.43c-1.26,1.23-1.59,2.35-1.17,4.02C1298.6,425.18,1299.33,428.85,1300.09,432.28z"/>
</g>
<polygon class="st24" points="1070.38,2119.21 1018.6,2119.21 1013.24,2006.64 1075.73,2006.64 "/>
<polygon class="st24" points="1970.25,2119.21 1918.47,2119.21 1913.12,2006.64 1975.6,2006.64 "/>
<path class="st7" d="M1925.11,1811.24c-5.71,17.7-11.93,35.87-18.73,54.51h-859.55c0,0-110.93-451.51,0-534.08
	c2.84-2.11,6.24-4.19,10.21-6.22c149.4-76.77,748.4-94.79,870.01,3.97c0.93,0.73,1.79,1.49,2.62,2.25
	C1974.48,1372.81,2013.44,1537,1925.11,1811.24z"/>
<path class="st25" d="M1370.89,1865.75h-323.88l31.58-316.45C1135.07,1573.81,1285.43,1703.19,1370.89,1865.75z"/>
<path class="st25" d="M1925.11,1811.24c-5.71,17.7-11.93,35.87-18.73,54.51h-312.2c53.69-99.57,183.88-250.39,310.3-319.82
	L1925.11,1811.24z"/>
<path class="st7" d="M2032.82,1544.87h-119.17c-20.03,0-36.96,14.84-39.59,34.7l-38.01,287.38h-696.48l-38.01-287.38
	c-2.63-19.86-19.56-34.7-39.59-34.7H942.81c-24.86,0-43.68,22.47-39.31,46.95l66.16,478.58h65.45v0h968.75v0h2.11l66.16-478.58
	C2076.5,1567.34,2057.68,1544.87,2032.82,1544.87z"/>
<g>
	<g>
		<path class="st21" d="M1829.1,1709.98c56.08,18.77,45.15,137.51,0,155.77h-680.32c-50.81-13.11-55.1-170.18,18.17-158.36
			C1615.4,1791.7,1637.12,1657.19,1829.1,1709.98z"/>
	</g>
</g>
<path class="st17" d="M1310.57,1589.63c-0.21,30.66,1.44,59.51,4.74,84.79h319l18.89-311.48
	c-18.95-113.77-70.82-141.34-152.93-141.34c-73.48,0-122.42,59.94-152.16,140.18C1322.4,1431.1,1311.03,1515.56,1310.57,1589.63z"/>
<path class="st26" d="M1310.57,1595.64l115.44-6.95c-64.09-20.98-69.19-119.34-4.04-180.55l-73.87-46.37
	C1322.4,1431.1,1311.03,1521.57,1310.57,1595.64z"/>
<polygon class="st27" points="1288.6,1738.79 1726.88,1738.79 1726.88,1589.64 1332.08,1589.64 "/>
<g>
	<path class="st27" d="M1782.87,1691.46l-117.72,427.76h-91.8c29.06-182.03,22.55-300.36,49.89-451.51
		C1647.22,1543.63,1811.42,1576.47,1782.87,1691.46z"/>
</g>
<g>
	<path class="st28" d="M1632.18,2119.21c0-0.28-0.02-0.56-0.02-0.85c0-31.71,25.71-57.42,57.42-57.42s57.42,25.71,57.42,57.42
		c0,0.28-0.02,0.56-0.02,0.85H1632.18z"/>
	<path class="st28" d="M1700.65,2062.02l-20.87-6.38c-13.78-27.1-72.53-23.74-64.35,9.24c-23.05,3.43-35.18-8.05-35.18-8.05
		l-6.89,62.38h124.48L1700.65,2062.02z"/>
</g>
<g>
	<path class="st27" d="M1265.96,1691.46l117.72,427.76h91.8c-29.06-182.03-22.55-300.36-49.89-451.51
		C1401.61,1543.63,1237.41,1576.47,1265.96,1691.46z"/>
</g>
<g>
	<path class="st28" d="M1416.65,2119.21c0-0.28,0.02-0.56,0.02-0.85c0-31.71-25.71-57.42-57.42-57.42s-57.42,25.71-57.42,57.42
		c0,0.28,0.02,0.56,0.02,0.85H1416.65z"/>
	<path class="st28" d="M1348.18,2062.02l20.87-6.38c13.78-27.1,72.53-23.74,64.35,9.24c23.05,3.43,35.18-8.05,35.18-8.05l6.89,62.38
		h-124.48L1348.18,2062.02z"/>
</g>
<path class="st17" d="M1451.11,1231.6c43.05,26.13,49.19,103.72,27.12,134.63l-122.85,91.52l125.08,64.41l-20.32,66.53
	c0,0-130.55-10.62-194.46-76.18C1204.32,1449.58,1353.91,1264.7,1451.11,1231.6z"/>
<path class="st17" d="M1538.45,1349.3c-36.83-46.24-11.39-117.7,35.55-115.6c152.87,53.82,200.06,203.25,151.63,270.33
	c-41.49,57.47-224.01,79.6-224.01,79.6v-62.92l126.82-27.4C1628.44,1493.31,1563.06,1392,1538.45,1349.3z"/>
<path class="st1" d="M1404.49,1567.68c-2.37-21.07,9.96-47.42,41.67-53.18c55.39-10.06,75.44,20.33,80.67,42.06
	c1.36,5.66-3.78,11.65-8.54,11.12c-4.76-0.53-8.1-3.21-8.92-7.52c-0.98-5.19-3.73-11.61-9.67-14.96
	c5.72,11.22,3.33,22.48-12.26,22.48H1404.49z"/>
<path class="st29" d="M1529.55,1567.62l43.59-218.56h9.24c-2.95,15.05-45.83,233.74-47.17,240.57c-11.42,0-116.37,0-130.63,0
	l-14.27-22.01H1529.55z"/>
<polygon class="st9" points="1582.38,1349.06 1906.73,1349.06 1858.75,1589.64 1535.21,1589.64 "/>
<path class="st30" d="M1487.81,1247.27c0,24.87,74.55,41.36,98.92,15.22c3.69-3.92,6.22-8.79,7.2-14.75l14.04-62.99l-89.04-33.57
	l-2.65,8.23L1487.81,1247.27z"/>
<path class="st7" d="M1593.93,1247.74l14.04-62.99l-84.24-22.68C1501.93,1226.97,1579.74,1278.81,1593.93,1247.74z"/>
<path class="st30" d="M1512.35,1126.98c-4.69,61.91,44.24,116.43,85.29,119.2c41.05,2.77,97.58-43.09,102.26-105
	c4.69-61.91-33.5-115.27-85.29-119.2C1562.82,1018.07,1517.04,1065.07,1512.35,1126.98z"/>
<path class="st24" d="M1580.99,1026.67c56.77-35.95,88.01-2.14,116.28,33.72c19.84,25.16,33.89,43.24,58.57,47.03
	c-47.49,59.9-142.46,20.38-172.38-39.64c-2.95,34.17-43.22,62.47-71.1,59.2C1503.32,1088.96,1529.65,1012.1,1580.99,1026.67z"/>
<ellipse transform="matrix(0.9871 -0.1602 0.1602 0.9871 -160.9856 258.5494)" class="st1" cx="1523.18" cy="1127.8" rx="24.71" ry="24.71"/>
</svg>
